<svg xmlns="http://www.w3.org/2000/svg" xml:space="preserve" style="fill-rule:evenodd;clip-rule:evenodd;stroke-linejoin:round;stroke-miterlimit:2" viewBox="0 0 800 800"><path d="M767.704 392.593a195.793 195.793 0 0 0 2.222-29.63c-.458-109.399-90.598-199.162-199.998-199.162a200.07 200.07 0 0 0-140.743 57.903 197.41 197.41 0 0 0-73.629-13.852 200.05 200.05 0 0 0-46.075 5.333L236.667 23.926v-.667a14.837 14.837 0 0 0-13.39-8.476c-8.128 0-14.815 6.688-14.815 14.815 0 1.916.371 3.813 1.094 5.587l80.666 183.556a5.535 5.535 0 0 0-1.259-2.222L130.148 20.889l-.37-.519a14.834 14.834 0 0 0-11.111-5.01c-8.133 0-14.826 6.692-14.826 14.825A14.83 14.83 0 0 0 107.556 40l164.518 186a198.937 198.937 0 0 0-21.037 11.037c-92.738.017-173.708 65.015-193.778 155.556H14.815v14.814c.087 130.538 88.641 245.566 214.815 279.037v39.482c0 34.37 14.814 59.259 36 59.259h268.74c20.889 0 36-24.889 36-59.259v-39.482c126.174-33.471 214.728-148.499 214.815-279.037v-14.814h-17.481ZM570.37 193.111c93.099.243 169.643 76.753 169.926 169.852a163.904 163.904 0 0 1-2.592 29.63h-24.445a146.144 146.144 0 0 0 2.994-29.431c0-80.175-65.973-146.148-146.148-146.148a146.174 146.174 0 0 0-92.031 32.616 203.945 203.945 0 0 0-20.518-13.926 170.413 170.413 0 0 1 112.814-42.593Zm0 77.556a92.308 92.308 0 0 0-54.296 17.703 175.88 175.88 0 0 0-15.481-18.444 114.973 114.973 0 0 1 69.777-23.259c63.834.125 116.291 52.684 116.291 116.518 0 9.923-1.268 19.806-3.772 29.408h-25.111a90.452 90.452 0 0 0 4.889-29.63c-.122-50.586-41.71-92.175-92.297-92.296Zm62.667 92.296a62.006 62.006 0 0 1-7.407 29.63h-70.815a198.246 198.246 0 0 0-22.963-79.186 62.237 62.237 0 0 1 38.518-13.185c34.345.162 62.546 28.396 62.667 62.741ZM318.889 241.407a169.41 169.41 0 0 1 37.037-4 167.06 167.06 0 0 1 70.963 15.556 164.245 164.245 0 0 1 42 27.407 168.574 168.574 0 0 1 56.222 112.223h-24.074c-7.668-74.175-70.912-131.203-145.481-131.186h-8.149a197.677 197.677 0 0 0-32.814-14.148 169.66 169.66 0 0 0-8.741-2.666c4.296-1.112 8.667-2.223 13.037-3.186Zm128.148 152.149v-.963a174.648 174.648 0 0 0-6.074-21.186l-.593-1.037c-17.669-40.258-61.753-62.596-104.666-53.037a142.211 142.211 0 0 0-28.741-15.629 117.706 117.706 0 0 1 38.741-10.223h10c58.121.007 107.796 43.501 115.481 101.112h-24.296c.125.304.176.634.148.963Zm-30.815-.963h-25.037a141.78 141.78 0 0 0-25.407-47.186 63.534 63.534 0 0 1 47.185 36.445c.889 2.667 1.778 5.333 2.518 8 .297.889.519 1.778.741 2.741Zm-120.741-37.037c-44.352-23.702-100.329-7.052-124.518 37.037h-26.667c17.931-43.475 60.529-71.991 107.556-72 5.498.002 10.99.348 16.444 1.037.419.041.841.041 1.26 0 40.355 6.231 74.614 33.199 90.148 70.963h-26.371a92.738 92.738 0 0 0-37.852-37.037Zm.815 37.037h-88.889a62.763 62.763 0 0 1 44.445-18.457 62.76 62.76 0 0 1 44.444 18.457ZM165.259 290.37a190.598 190.598 0 0 1 86.593-23.703c8.278.078 16.543.697 24.741 1.852 7.1 1.061 14.126 2.57 21.037 4.518a146.042 146.042 0 0 0-30.963 18.593c-4.741-.445-9.63-.667-14.815-.667-63.322.057-119.719 41.303-138.963 101.63H87.704a168.8 168.8 0 0 1 77.555-102.223Zm331.037 376.297H385.185v29.629h155.556v29.63a46.457 46.457 0 0 1-7.408 29.63H266.667a46.457 46.457 0 0 1-7.408-29.63v-29.63h37.037v-29.629c-133.841-3.84-243.811-110.764-251.407-244.445h710.296c-7.809 136.439-122.227 244.473-258.889 244.445Z" style="fill-rule:nonzero" transform="matrix(.4853 0 0 .512 205.879 12.74)"/><path d="M.412-.666c.021 0 .038.008.05.023a.077.077 0 0 1 .014.045.238.238 0 0 1-.032.108.374.374 0 0 1-.069.094c-.018.018-.033.027-.043.027-.007 0-.013-.004-.019-.01a.027.027 0 0 1-.006-.017c0-.011.01-.024.029-.039a.286.286 0 0 0 .067-.068.17.17 0 0 0 .037-.091c0-.01-.002-.018-.007-.023C.429-.622.422-.624.414-.624c-.018 0-.044.013-.077.039a.748.748 0 0 0-.118.12.808.808 0 0 0-.121.189.42.42 0 0 0-.043.165c0 .022.006.041.019.056a.064.064 0 0 0 .051.026c.035 0 .079-.028.133-.082a.74.74 0 0 0 .087-.116c.005-.009.01-.014.017-.014.007 0 .011.004.011.011 0 .014-.019.047-.055.098a.458.458 0 0 1-.1.105.2.2 0 0 1-.116.045.098.098 0 0 1-.089-.051.145.145 0 0 1-.02-.075c0-.07.033-.159.1-.266a.954.954 0 0 1 .179-.22c.054-.048.101-.072.14-.072Z" style="fill-rule:nonzero" transform="matrix(361.68357 0 0 361.68357 57.125 692.628)"/><path d="M.16-.353c.027 0 .04.016.04.049a.34.34 0 0 1-.06.164c-.043.072-.086.108-.126.108a.045.045 0 0 1-.042-.026.076.076 0 0 1-.007-.032c0-.042.015-.087.043-.136a.324.324 0 0 1 .095-.105.1.1 0 0 1 .057-.022Zm-.051.185C.101-.175.097-.18.097-.184c0-.002.005-.009.016-.021.029-.033.044-.059.044-.08a.01.01 0 0 0-.003-.007A.012.012 0 0 0 .142-.3c-.01 0-.026.01-.046.03a.303.303 0 0 0-.059.081.186.186 0 0 0-.024.079c0 .005.001.01.004.014a.02.02 0 0 0 .016.009c.016 0 .033-.012.05-.035a.174.174 0 0 0 .02-.03l.006-.016Z" style="fill-rule:nonzero" transform="matrix(361.68357 0 0 361.68357 208.297 692.628)"/><path d="M.16-.353c.027 0 .04.016.04.049a.34.34 0 0 1-.06.164c-.043.072-.086.108-.126.108a.045.045 0 0 1-.042-.026.076.076 0 0 1-.007-.032c0-.042.015-.087.043-.136a.324.324 0 0 1 .095-.105.1.1 0 0 1 .057-.022Zm-.051.185C.101-.175.097-.18.097-.184c0-.002.005-.009.016-.021.029-.033.044-.059.044-.08a.01.01 0 0 0-.003-.007A.012.012 0 0 0 .142-.3c-.01 0-.026.01-.046.03a.303.303 0 0 0-.059.081.186.186 0 0 0-.024.079c0 .005.001.01.004.014a.02.02 0 0 0 .016.009c.016 0 .033-.012.05-.035a.174.174 0 0 0 .02-.03l.006-.016Z" style="fill-rule:nonzero" transform="matrix(361.68357 0 0 361.68357 292.184 692.628)"/><path d="M.172-.247a.356.356 0 0 0-.032.12c0 .013.003.024.008.033a.028.028 0 0 0 .026.016c.022 0 .048-.014.076-.044A.321.321 0 0 0 .299-.18c.008-.013.016-.019.024-.019.007 0 .011.004.011.011 0 .012-.015.038-.045.076-.044.057-.087.086-.129.086-.025 0-.043-.013-.053-.037A.139.139 0 0 1 .095-.12c0-.016.004-.041.012-.073a.604.604 0 0 0-.096.129c-.012.018-.022.027-.032.027a.016.016 0 0 1-.012-.006c-.004-.005-.006-.009-.006-.014a1.67 1.67 0 0 1 .245-.456.582.582 0 0 1 .1-.106c.027-.02.048-.03.064-.03.007 0 .014.003.019.009A.036.036 0 0 1 .4-.614c0 .028-.015.063-.044.107a.906.906 0 0 1-.154.161.88.88 0 0 1-.11.083l-.035.075a.656.656 0 0 1 .096-.091.348.348 0 0 1 .062-.033.135.135 0 0 1 .038-.011c.005 0 .008.001.012.005a.014.014 0 0 1 .005.011c0 .011-.007.019-.022.023a.28.28 0 0 0-.076.037ZM.13-.331a.715.715 0 0 0 .205-.212.1.1 0 0 0 .015-.038c0-.008-.004-.011-.011-.011-.018 0-.049.028-.094.084a1.268 1.268 0 0 0-.115.177Z" style="fill-rule:nonzero" transform="matrix(361.68357 0 0 361.68357 376.07 692.628)"/><path d="M.1-.331c.005 0 .01.003.013.007a.015.015 0 0 1 .004.011c0 .005-.005.015-.014.029a.825.825 0 0 0-.113.237c-.005.016-.013.024-.024.024A.02.02 0 0 1-.05-.031a.024.024 0 0 1-.005-.013.684.684 0 0 1 .137-.277c.005-.006.011-.01.018-.01Zm.092-.181c.015 0 .022.008.022.023 0 .013-.007.029-.021.045-.014.016-.027.024-.04.024a.018.018 0 0 1-.015-.007.02.02 0 0 1-.006-.015c0-.016.009-.033.026-.05.013-.013.024-.02.034-.02Z" style="fill-rule:nonzero" transform="matrix(361.68357 0 0 361.68357 504.638 692.628)"/><path d="M.062-.206a.12.12 0 0 0 .012-.011c.068-.067.114-.1.137-.1.013 0 .019.007.019.021 0 .01-.006.021-.017.035C.151-.189.12-.125.12-.069c0 .018.005.035.014.051A.032.032 0 0 1 .141 0c0 .003-.002.007-.006.011A.021.021 0 0 1 .12.018C.107.018.096.009.086-.008a.127.127 0 0 1-.013-.058c0-.044.017-.093.05-.146A.394.394 0 0 0 0-.062c-.01.018-.021.026-.032.026a.016.016 0 0 1-.013-.006c-.005-.004-.007-.01-.007-.017a.47.47 0 0 1 .06-.138.725.725 0 0 1 .051-.088C.071-.303.082-.312.09-.312c.005 0 .009.002.013.006s.006.01.006.015c0 .008-.004.018-.014.031-.013.02-.025.038-.033.054Z" style="fill-rule:nonzero" transform="matrix(361.68357 0 0 361.68357 552.32 692.628)"/><path d="M.118-.08a.425.425 0 0 0 .131-.143c.005-.009.01-.013.016-.013.007 0 .011.004.011.011a.104.104 0 0 1-.018.044.507.507 0 0 1-.173.164 1.617 1.617 0 0 1-.079.152c-.045.071-.087.106-.127.106-.021 0-.036-.008-.045-.025A.066.066 0 0 1-.174.184c0-.051.033-.1.099-.147.01-.008.052-.032.126-.073l.033-.071C.05-.072.022-.054 0-.054c-.014 0-.025-.007-.033-.021a.063.063 0 0 1-.008-.029c0-.024.01-.054.029-.091a.402.402 0 0 1 .099-.126c.032-.026.061-.038.085-.038.013 0 .024.004.033.014.006.006.009.015.009.027a.142.142 0 0 1-.015.056c.008.007.011.012.011.016l-.004.01a.832.832 0 0 0-.088.156ZM.114-.193C.11-.198.107-.201.107-.203c0-.003.003-.007.008-.011a.247.247 0 0 0 .039-.049c.008-.014.013-.024.013-.031 0-.009-.005-.014-.013-.014-.014 0-.034.014-.06.04a.356.356 0 0 0-.072.106.145.145 0 0 0-.013.045c0 .006.002.011.004.013a.016.016 0 0 0 .011.005c.012 0 .028-.012.048-.035a.388.388 0 0 0 .042-.059ZM.022.021a.305.305 0 0 0-.114.083.171.171 0 0 0-.033.054l-.002.015.002.011a.018.018 0 0 0 .016.009c.02 0 .043-.022.07-.065C-.015.09.005.055.022.021Z" style="fill-rule:nonzero" transform="matrix(361.68357 0 0 361.68357 645.39 692.628)"/></svg>